<svg width="20" height="21" viewBox="0 0 20 21" fill="none" xmlns="http://www.w3.org/2000/svg">
<mask id="mask0_488_9755" style="mask-type:alpha" maskUnits="userSpaceOnUse" x="0" y="0" width="20" height="21">
<rect y="0.121094" width="20" height="20" fill="#D9D9D9"/>
</mask>
<g mask="url(#mask0_488_9755)">
<path d="M3.63281 15.9538V8.45378C3.63281 8.18989 3.69184 7.93989 3.8099 7.70378C3.92795 7.46766 4.09115 7.27322 4.29948 7.12044L9.29948 3.37044C9.59115 3.14822 9.92448 3.03711 10.2995 3.03711C10.6745 3.03711 11.0078 3.14822 11.2995 3.37044L16.2995 7.12044C16.5078 7.27322 16.671 7.46766 16.7891 7.70378C16.9071 7.93989 16.9661 8.18989 16.9661 8.45378V15.9538C16.9661 16.4121 16.803 16.8045 16.4766 17.1309C16.1502 17.4572 15.7578 17.6204 15.2995 17.6204H12.7995C12.5634 17.6204 12.3655 17.5406 12.2057 17.3809C12.046 17.2211 11.9661 17.0232 11.9661 16.7871V12.6204C11.9661 12.3843 11.8863 12.1864 11.7266 12.0267C11.5668 11.867 11.3689 11.7871 11.1328 11.7871H9.46615C9.23003 11.7871 9.03212 11.867 8.8724 12.0267C8.71267 12.1864 8.63281 12.3843 8.63281 12.6204V16.7871C8.63281 17.0232 8.55295 17.2211 8.39323 17.3809C8.23351 17.5406 8.03559 17.6204 7.79948 17.6204H5.29948C4.84115 17.6204 4.44878 17.4572 4.1224 17.1309C3.79601 16.8045 3.63281 16.4121 3.63281 15.9538Z" fill="#2E81FF"/>
</g>
</svg>
