<svg width="20" height="21" viewBox="0 0 20 21" fill="none" xmlns="http://www.w3.org/2000/svg">
<mask id="mask0_745_7687" style="mask-type:alpha" maskUnits="userSpaceOnUse" x="0" y="0" width="20" height="21">
<rect y="0.121094" width="20" height="20" fill="#D9D9D9"/>
</mask>
<g mask="url(#mask0_745_7687)">
<path d="M8.1901 13.6204C6.67622 13.6204 5.39497 13.0961 4.34635 12.0475C3.29774 10.9989 2.77344 9.71766 2.77344 8.20378C2.77344 6.68989 3.29774 5.40864 4.34635 4.36003C5.39497 3.31141 6.67622 2.78711 8.1901 2.78711C9.70399 2.78711 10.9852 3.31141 12.0339 4.36003C13.0825 5.40864 13.6068 6.68989 13.6068 8.20378C13.6068 8.81489 13.5095 9.39128 13.3151 9.93294C13.1207 10.4746 12.8568 10.9538 12.5234 11.3704L17.1901 16.0371C17.3429 16.1899 17.4193 16.3843 17.4193 16.6204C17.4193 16.8566 17.3429 17.051 17.1901 17.2038C17.0373 17.3566 16.8429 17.4329 16.6068 17.4329C16.3707 17.4329 16.1762 17.3566 16.0234 17.2038L11.3568 12.5371C10.9401 12.8704 10.4609 13.1343 9.91927 13.3288C9.3776 13.5232 8.80122 13.6204 8.1901 13.6204ZM8.1901 11.9538C9.23177 11.9538 10.1172 11.5892 10.8464 10.86C11.5755 10.1309 11.9401 9.24544 11.9401 8.20378C11.9401 7.16211 11.5755 6.27669 10.8464 5.54753C10.1172 4.81836 9.23177 4.45378 8.1901 4.45378C7.14844 4.45378 6.26302 4.81836 5.53385 5.54753C4.80469 6.27669 4.4401 7.16211 4.4401 8.20378C4.4401 9.24544 4.80469 10.1309 5.53385 10.86C6.26302 11.5892 7.14844 11.9538 8.1901 11.9538Z" fill="#2E81FF"/>
</g>
</svg>
