<svg width="20" height="21" viewBox="0 0 20 21" fill="none" xmlns="http://www.w3.org/2000/svg">
<g clip-path="url(#clip0_573_7855)">
<mask id="mask0_573_7855" style="mask-type:alpha" maskUnits="userSpaceOnUse" x="0" y="0" width="20" height="21">
<rect y="0.121094" width="20" height="20" fill="#D9D9D9"/>
</mask>
<g mask="url(#mask0_573_7855)">
<path d="M9.99935 17.0583C9.8049 17.0583 9.60699 17.0235 9.4056 16.9541C9.20421 16.8847 9.02713 16.7735 8.87435 16.6208L7.43685 15.3083C5.96463 13.961 4.63477 12.6242 3.44727 11.2979C2.25977 9.97146 1.66602 8.50966 1.66602 6.91244C1.66602 5.60688 2.10352 4.5166 2.97852 3.6416C3.85352 2.7666 4.94379 2.3291 6.24935 2.3291C6.98546 2.3291 7.6799 2.48535 8.33268 2.79785C8.98546 3.11035 9.54102 3.53743 9.99935 4.0791C10.4577 3.53743 11.0132 3.11035 11.666 2.79785C12.3188 2.48535 13.0132 2.3291 13.7493 2.3291C15.0549 2.3291 16.1452 2.7666 17.0202 3.6416C17.8952 4.5166 18.3327 5.60688 18.3327 6.91244C18.3327 8.50966 17.7424 9.97494 16.5618 11.3083C15.3813 12.6416 14.041 13.9819 12.541 15.3291L11.1243 16.6208C10.9716 16.7735 10.7945 16.8847 10.5931 16.9541C10.3917 17.0235 10.1938 17.0583 9.99935 17.0583ZM9.20768 5.74577C8.8049 5.17632 8.37435 4.7423 7.91602 4.44369C7.45768 4.14507 6.90213 3.99577 6.24935 3.99577C5.41602 3.99577 4.72157 4.27355 4.16602 4.8291C3.61046 5.38466 3.33268 6.0791 3.33268 6.91244C3.33268 7.63466 3.58963 8.40202 4.10352 9.21452C4.6174 10.027 5.23199 10.8152 5.94727 11.5791C6.66254 12.343 7.39865 13.0583 8.1556 13.7249C8.91254 14.3916 9.52713 14.9402 9.99935 15.3708C10.4716 14.9402 11.0862 14.3916 11.8431 13.7249C12.6 13.0583 13.3362 12.343 14.0514 11.5791C14.7667 10.8152 15.3813 10.027 15.8952 9.21452C16.4091 8.40202 16.666 7.63466 16.666 6.91244C16.666 6.0791 16.3882 5.38466 15.8327 4.8291C15.2771 4.27355 14.5827 3.99577 13.7493 3.99577C13.0966 3.99577 12.541 4.14507 12.0827 4.44369C11.6243 4.7423 11.1938 5.17632 10.791 5.74577C10.6938 5.88466 10.5757 5.98882 10.4368 6.05827C10.298 6.12771 10.1521 6.16244 9.99935 6.16244C9.84657 6.16244 9.70074 6.12771 9.56185 6.05827C9.42296 5.98882 9.3049 5.88466 9.20768 5.74577Z" fill="#1C1B1F"/>
</g>
</g>
<defs>
<clipPath id="clip0_573_7855">
<rect width="20" height="20" fill="white" transform="translate(0 0.121094)"/>
</clipPath>
</defs>
</svg>
