<svg width="20" height="20" viewBox="0 0 20 20" fill="none" xmlns="http://www.w3.org/2000/svg">
<mask id="mask0_472_6166" style="mask-type:alpha" maskUnits="userSpaceOnUse" x="0" y="0" width="20" height="20">
<rect y="0.783203" width="20" height="19.1129" fill="#D9D9D9"/>
</mask>
<g mask="url(#mask0_472_6166)">
<path d="M10.0013 16.8044C9.80686 16.8044 9.60894 16.7712 9.40755 16.7048C9.20616 16.6385 9.02908 16.5323 8.8763 16.3863L7.4388 15.132C5.96658 13.8445 4.63672 12.567 3.44922 11.2995C2.26172 10.0319 1.66797 8.63493 1.66797 7.10856C1.66797 5.86091 2.10547 4.81899 2.98047 3.9828C3.85547 3.14661 4.94575 2.72852 6.2513 2.72852C6.98741 2.72852 7.68186 2.87784 8.33464 3.17647C8.98741 3.47511 9.54297 3.88325 10.0013 4.40089C10.4596 3.88325 11.0152 3.47511 11.668 3.17647C12.3207 2.87784 13.0152 2.72852 13.7513 2.72852C15.0569 2.72852 16.1471 3.14661 17.0221 3.9828C17.8971 4.81899 18.3346 5.86091 18.3346 7.10856C18.3346 8.63493 17.7444 10.0352 16.5638 11.3094C15.3832 12.5836 14.043 13.8644 12.543 15.1519L11.1263 16.3863C10.9735 16.5323 10.7964 16.6385 10.5951 16.7048C10.3937 16.7712 10.1957 16.8044 10.0013 16.8044Z" fill="#2E81FF"/>
</g>
</svg>
