<svg width="21" height="20" viewBox="0 0 21 20" fill="none" xmlns="http://www.w3.org/2000/svg">
<mask id="mask0_472_11580" style="mask-type:alpha" maskUnits="userSpaceOnUse" x="0" y="0" width="21" height="20">
<rect x="0.400391" width="20" height="20" fill="#D9D9D9"/>
</mask>
<g mask="url(#mask0_472_11580)">
<path d="M3.73372 15C3.49761 15 3.2997 14.9201 3.13997 14.7604C2.98025 14.6007 2.90039 14.4028 2.90039 14.1667C2.90039 13.9306 2.98025 13.7326 3.13997 13.5729C3.2997 13.4132 3.49761 13.3333 3.73372 13.3333H17.0671C17.3032 13.3333 17.5011 13.4132 17.6608 13.5729C17.8205 13.7326 17.9004 13.9306 17.9004 14.1667C17.9004 14.4028 17.8205 14.6007 17.6608 14.7604C17.5011 14.9201 17.3032 15 17.0671 15H3.73372ZM3.73372 10.8333C3.49761 10.8333 3.2997 10.7535 3.13997 10.5938C2.98025 10.434 2.90039 10.2361 2.90039 10C2.90039 9.76389 2.98025 9.56597 3.13997 9.40625C3.2997 9.24653 3.49761 9.16667 3.73372 9.16667H17.0671C17.3032 9.16667 17.5011 9.24653 17.6608 9.40625C17.8205 9.56597 17.9004 9.76389 17.9004 10C17.9004 10.2361 17.8205 10.434 17.6608 10.5938C17.5011 10.7535 17.3032 10.8333 17.0671 10.8333H3.73372ZM3.73372 6.66667C3.49761 6.66667 3.2997 6.58681 3.13997 6.42708C2.98025 6.26736 2.90039 6.06944 2.90039 5.83333C2.90039 5.59722 2.98025 5.39931 3.13997 5.23958C3.2997 5.07986 3.49761 5 3.73372 5H17.0671C17.3032 5 17.5011 5.07986 17.6608 5.23958C17.8205 5.39931 17.9004 5.59722 17.9004 5.83333C17.9004 6.06944 17.8205 6.26736 17.6608 6.42708C17.5011 6.58681 17.3032 6.66667 17.0671 6.66667H3.73372Z" fill="#888888"/>
</g>
</svg>
