<svg width="20" height="21" viewBox="0 0 20 21" fill="none" xmlns="http://www.w3.org/2000/svg">
<path d="M9.9987 11.2874L5.91536 15.3708C5.76259 15.5235 5.56814 15.5999 5.33203 15.5999C5.09592 15.5999 4.90148 15.5235 4.7487 15.3708C4.59592 15.218 4.51953 15.0235 4.51953 14.7874C4.51953 14.5513 4.59592 14.3569 4.7487 14.2041L8.83203 10.1208L4.7487 6.03744C4.59592 5.88466 4.51953 5.69021 4.51953 5.4541C4.51953 5.21799 4.59592 5.02355 4.7487 4.87077C4.90148 4.71799 5.09592 4.6416 5.33203 4.6416C5.56814 4.6416 5.76259 4.71799 5.91536 4.87077L9.9987 8.9541L14.082 4.87077C14.2348 4.71799 14.4293 4.6416 14.6654 4.6416C14.9015 4.6416 15.0959 4.71799 15.2487 4.87077C15.4015 5.02355 15.4779 5.21799 15.4779 5.4541C15.4779 5.69021 15.4015 5.88466 15.2487 6.03744L11.1654 10.1208L15.2487 14.2041C15.4015 14.3569 15.4779 14.5513 15.4779 14.7874C15.4779 15.0235 15.4015 15.218 15.2487 15.3708C15.0959 15.5235 14.9015 15.5999 14.6654 15.5999C14.4293 15.5999 14.2348 15.5235 14.082 15.3708L9.9987 11.2874Z" fill="black"/>
</svg>
