<svg width="24" height="25" viewBox="0 0 24 25" fill="none" xmlns="http://www.w3.org/2000/svg">
<path d="M12 14.2789L14.9 17.1789C15.0833 17.3622 15.3167 17.4539 15.6 17.4539C15.8833 17.4539 16.1167 17.3622 16.3 17.1789C16.4833 16.9956 16.575 16.7622 16.575 16.4789C16.575 16.1956 16.4833 15.9622 16.3 15.7789L13.4 12.8789L16.3 9.97891C16.4833 9.79557 16.575 9.56224 16.575 9.27891C16.575 8.99557 16.4833 8.76224 16.3 8.57891C16.1167 8.39557 15.8833 8.30391 15.6 8.30391C15.3167 8.30391 15.0833 8.39557 14.9 8.57891L12 11.4789L9.1 8.57891C8.91667 8.39557 8.68333 8.30391 8.4 8.30391C8.11667 8.30391 7.88333 8.39557 7.7 8.57891C7.51667 8.76224 7.425 8.99557 7.425 9.27891C7.425 9.56224 7.51667 9.79557 7.7 9.97891L10.6 12.8789L7.7 15.7789C7.51667 15.9622 7.425 16.1956 7.425 16.4789C7.425 16.7622 7.51667 16.9956 7.7 17.1789C7.88333 17.3622 8.11667 17.4539 8.4 17.4539C8.68333 17.4539 8.91667 17.3622 9.1 17.1789L12 14.2789ZM12 22.8789C10.6167 22.8789 9.31667 22.6164 8.1 22.0914C6.88333 21.5664 5.825 20.8539 4.925 19.9539C4.025 19.0539 3.3125 17.9956 2.7875 16.7789C2.2625 15.5622 2 14.2622 2 12.8789C2 11.4956 2.2625 10.1956 2.7875 8.97891C3.3125 7.76224 4.025 6.70391 4.925 5.80391C5.825 4.90391 6.88333 4.19141 8.1 3.66641C9.31667 3.14141 10.6167 2.87891 12 2.87891C13.3833 2.87891 14.6833 3.14141 15.9 3.66641C17.1167 4.19141 18.175 4.90391 19.075 5.80391C19.975 6.70391 20.6875 7.76224 21.2125 8.97891C21.7375 10.1956 22 11.4956 22 12.8789C22 14.2622 21.7375 15.5622 21.2125 16.7789C20.6875 17.9956 19.975 19.0539 19.075 19.9539C18.175 20.8539 17.1167 21.5664 15.9 22.0914C14.6833 22.6164 13.3833 22.8789 12 22.8789Z" fill="#1C1B1F"/>
</svg>
