<svg width="80" height="80" viewBox="0 0 80 80" fill="none" xmlns="http://www.w3.org/2000/svg">
<rect x="0.5" y="0.5" width="79" height="79" rx="3.5" fill="white"/>
<rect x="0.5" y="0.5" width="79" height="79" rx="3.5" stroke="#E0E0E0"/>
<path d="M46 37H44C43.4 37 43 37.4 43 38C43 38.6 43.4 39 44 39H46C46.6 39 47 39.4 47 40V47C47 47.6 46.6 48 46 48H34C33.4 48 33 47.6 33 47V40C33 39.4 33.4 39 34 39H36C36.6 39 37 38.6 37 38C37 37.4 36.6 37 36 37H34C32.3 37 31 38.3 31 40V47C31 48.7 32.3 50 34 50H46C47.7 50 49 48.7 49 47V40C49 38.3 47.7 37 46 37ZM37.7 34.7L39 33.4V45C39 45.6 39.4 46 40 46C40.6 46 41 45.6 41 45V33.4L42.3 34.7C42.5 34.9 42.7 35 43 35C43.3 35 43.5 34.9 43.7 34.7C44.1 34.3 44.1 33.7 43.7 33.3L40.7 30.3C40.3 29.9 39.7 29.9 39.3 30.3L36.3 33.3C35.9 33.7 35.9 34.3 36.3 34.7C36.7 35.1 37.3 35.1 37.7 34.7Z" fill="#666666"/>
</svg>
