<svg width="20" height="21" viewBox="0 0 20 21" fill="none" xmlns="http://www.w3.org/2000/svg">
<mask id="mask0_472_7962" style="mask-type:alpha" maskUnits="userSpaceOnUse" x="0" y="0" width="20" height="21">
<rect y="0.121094" width="20" height="20" fill="#D9D9D9"/>
</mask>
<g mask="url(#mask0_472_7962)">
<path d="M10.0013 16.8854C9.80686 16.8854 9.60894 16.8507 9.40755 16.7813C9.20616 16.7118 9.02908 16.6007 8.8763 16.4479L7.4388 15.1354C5.96658 13.7882 4.63672 12.4514 3.44922 11.125C2.26172 9.79861 1.66797 8.33681 1.66797 6.73958C1.66797 5.43403 2.10547 4.34375 2.98047 3.46875C3.85547 2.59375 4.94575 2.15625 6.2513 2.15625C6.98741 2.15625 7.68186 2.3125 8.33464 2.625C8.98741 2.9375 9.54297 3.36458 10.0013 3.90625C10.4596 3.36458 11.0152 2.9375 11.668 2.625C12.3207 2.3125 13.0152 2.15625 13.7513 2.15625C15.0569 2.15625 16.1471 2.59375 17.0221 3.46875C17.8971 4.34375 18.3346 5.43403 18.3346 6.73958C18.3346 8.33681 17.7444 9.80208 16.5638 11.1354C15.3832 12.4688 14.043 13.809 12.543 15.1563L11.1263 16.4479C10.9735 16.6007 10.7964 16.7118 10.5951 16.7813C10.3937 16.8507 10.1957 16.8854 10.0013 16.8854Z" fill="#888888"/>
</g>
</svg>
