<svg width="20" height="20" viewBox="0 0 20 20" fill="none" xmlns="http://www.w3.org/2000/svg">
<mask id="mask0_472_11609" style="mask-type:alpha" maskUnits="userSpaceOnUse" x="0" y="0" width="20" height="20">
<rect width="20" height="20" fill="#D9D9D9"/>
</mask>
<g mask="url(#mask0_472_11609)">
<path d="M3.63281 15.8327V8.33268C3.63281 8.06879 3.69184 7.81879 3.8099 7.58268C3.92795 7.34657 4.09115 7.15213 4.29948 6.99935L9.29948 3.24935C9.59115 3.02713 9.92448 2.91602 10.2995 2.91602C10.6745 2.91602 11.0078 3.02713 11.2995 3.24935L16.2995 6.99935C16.5078 7.15213 16.671 7.34657 16.7891 7.58268C16.9071 7.81879 16.9661 8.06879 16.9661 8.33268V15.8327C16.9661 16.291 16.803 16.6834 16.4766 17.0098C16.1502 17.3362 15.7578 17.4993 15.2995 17.4993H12.7995C12.5634 17.4993 12.3655 17.4195 12.2057 17.2598C12.046 17.1 11.9661 16.9021 11.9661 16.666V12.4993C11.9661 12.2632 11.8863 12.0653 11.7266 11.9056C11.5668 11.7459 11.3689 11.666 11.1328 11.666H9.46615C9.23003 11.666 9.03212 11.7459 8.8724 11.9056C8.71267 12.0653 8.63281 12.2632 8.63281 12.4993V16.666C8.63281 16.9021 8.55295 17.1 8.39323 17.2598C8.23351 17.4195 8.03559 17.4993 7.79948 17.4993H5.29948C4.84115 17.4993 4.44878 17.3362 4.1224 17.0098C3.79601 16.6834 3.63281 16.291 3.63281 15.8327Z" fill="#888888"/>
</g>
</svg>
