<svg width="111" height="20" viewBox="0 0 111 20" fill="none" xmlns="http://www.w3.org/2000/svg">
<path d="M104.547 9.6179C104.547 10.3421 104.225 10.9292 103.505 10.9292C102.786 10.9292 102.463 10.3421 102.463 9.6179C102.463 8.89371 102.786 8.30664 103.505 8.30664C104.225 8.30664 104.547 8.89371 104.547 9.6179Z" fill="#2E81FF"/>
<path d="M108.755 9.6179C108.755 10.3421 108.432 10.9292 107.712 10.9292C106.993 10.9292 106.67 10.3421 106.67 9.6179C106.67 8.89371 106.993 8.30664 107.712 8.30664C108.432 8.30664 108.755 8.89371 108.755 9.6179Z" fill="#2E81FF"/>
<path d="M101.199 11.8796C101.508 11.6756 101.924 11.7606 102.128 12.0694C102.868 13.1904 104.137 13.9276 105.578 13.9276C107.02 13.9276 108.289 13.1904 109.029 12.0694C109.233 11.7606 109.649 11.6756 109.958 11.8796C110.266 12.0835 110.351 12.4991 110.147 12.8079C109.169 14.2886 107.488 15.2677 105.578 15.2677C103.668 15.2677 101.987 14.2886 101.009 12.8079C100.806 12.4991 100.891 12.0835 101.199 11.8796Z" fill="#2E81FF"/>
<path d="M4.7528 15.3156V1.14054H7.15V15.3156H4.7528ZM0 2.91243V0.723633H11.9029V2.91243H0Z" fill="#2E81FF"/>
<path d="M11.5605 15.316V5.31001H13.8536V15.316H11.5605ZM13.8536 9.75015L13.0614 9.35405C13.0614 8.08945 13.3394 7.06795 13.8953 6.28976C14.465 5.49762 15.3197 5.10156 16.4593 5.10156C16.9596 5.10156 17.4112 5.19189 17.8142 5.37255C18.2173 5.55321 18.5925 5.84505 18.9399 6.24807L17.439 7.79065C17.2584 7.59605 17.0568 7.45715 16.8345 7.37375C16.6121 7.29035 16.355 7.24865 16.0632 7.24865C15.4239 7.24865 14.8958 7.45015 14.4789 7.85315C14.062 8.25625 13.8536 8.88855 13.8536 9.75015Z" fill="#2E81FF"/>
<path d="M23.9345 15.5245C23.0312 15.5245 22.2112 15.2951 21.4747 14.8365C20.752 14.3779 20.1753 13.7595 19.7445 12.9813C19.3276 12.1891 19.1191 11.3067 19.1191 10.3339C19.1191 9.34715 19.3276 8.46465 19.7445 7.68645C20.1753 6.89425 20.752 6.26891 21.4747 5.81031C22.2112 5.33781 23.0312 5.10156 23.9345 5.10156C24.6988 5.10156 25.3728 5.26832 25.9565 5.60185C26.5541 5.92149 27.0266 6.36619 27.374 6.93595C27.7214 7.50575 27.8952 8.15195 27.8952 8.87465V11.7514C27.8952 12.474 27.7214 13.1202 27.374 13.69C27.0405 14.2598 26.5749 14.7115 25.9774 15.045C25.3798 15.3646 24.6988 15.5245 23.9345 15.5245ZM24.3097 13.3565C25.1574 13.3565 25.8384 13.0716 26.3526 12.5018C26.8807 11.932 27.1447 11.2024 27.1447 10.313C27.1447 9.71545 27.0266 9.18735 26.7903 8.72875C26.5541 8.27005 26.2206 7.91575 25.7897 7.66555C25.3728 7.40155 24.8795 7.26955 24.3097 7.26955C23.7538 7.26955 23.2605 7.40155 22.8297 7.66555C22.4127 7.91575 22.0792 8.27005 21.8291 8.72875C21.5928 9.18735 21.4747 9.71545 21.4747 10.313C21.4747 10.9106 21.5928 11.4387 21.8291 11.8973C22.0792 12.3559 22.4127 12.7172 22.8297 12.9813C23.2605 13.2314 23.7538 13.3565 24.3097 13.3565ZM26.9988 15.316V12.6269L27.3949 10.188L26.9988 7.76985V5.31001H29.2918V15.316H26.9988Z" fill="#2E81FF"/>
<path d="M35.2136 15.3155L30.6484 5.30957H33.1916L36.6728 13.4602H35.1719L38.674 5.30957H41.113L36.5478 15.3155H35.2136Z" fill="#2E81FF"/>
<path d="M46.785 15.5245C45.7844 15.5245 44.8811 15.3021 44.0751 14.8574C43.2829 14.3988 42.6506 13.7734 42.1781 12.9813C41.7195 12.1891 41.4902 11.2997 41.4902 10.313C41.4902 9.32625 41.7195 8.44385 42.1781 7.66555C42.6367 6.87345 43.2552 6.24807 44.0334 5.78946C44.8255 5.33086 45.701 5.10156 46.66 5.10156C47.5911 5.10156 48.411 5.31696 49.1197 5.74777C49.8424 6.17858 50.4052 6.76925 50.8082 7.51965C51.2252 8.27015 51.4336 9.12475 51.4336 10.0837C51.4336 10.2505 51.4197 10.4242 51.3919 10.6049C51.378 10.7716 51.3502 10.9592 51.3085 11.1677H43.0953V9.29155H50.1203L49.2657 10.042C49.2379 9.43055 49.1197 8.91635 48.9113 8.49945C48.7028 8.08245 48.404 7.76285 48.0149 7.54055C47.6397 7.31815 47.1741 7.20695 46.6183 7.20695C46.0346 7.20695 45.5273 7.33205 45.0965 7.58215C44.6657 7.83235 44.3322 8.18675 44.0959 8.64535C43.8597 9.09005 43.7416 9.62505 43.7416 10.2505C43.7416 10.8759 43.8666 11.4248 44.1168 11.8973C44.3669 12.3698 44.7213 12.7381 45.1799 13.0021C45.6385 13.2523 46.1666 13.3773 46.7642 13.3773C47.2784 13.3773 47.7509 13.287 48.1817 13.1064C48.6264 12.9257 49.0016 12.6616 49.3074 12.3142L50.7666 13.7943C50.2802 14.364 49.6895 14.7949 48.9947 15.0867C48.2998 15.3785 47.5633 15.5245 46.785 15.5245Z" fill="#2E81FF"/>
<path d="M53.2715 15.3155V0.306641H55.5645V15.3155H53.2715Z" fill="#2E81FF"/>
<path d="M58.1381 15.3156V5.30968H60.4311V15.3156H58.1381ZM59.2846 3.47526C58.8955 3.47526 58.5689 3.34324 58.3049 3.07919C58.0547 2.81515 57.9297 2.48856 57.9297 2.09945C57.9297 1.71032 58.0547 1.38374 58.3049 1.1197C58.5689 0.855653 58.8955 0.723633 59.2846 0.723633C59.6877 0.723633 60.0142 0.855653 60.2644 1.1197C60.5145 1.38374 60.6396 1.71032 60.6396 2.09945C60.6396 2.48856 60.5145 2.81515 60.2644 3.07919C60.0142 3.34324 59.6877 3.47526 59.2846 3.47526Z" fill="#2E81FF"/>
<path d="M67.1924 15.524C66.2891 15.524 65.4691 15.2946 64.7326 14.836C64.0099 14.3774 63.4331 13.759 63.0023 12.9808C62.5854 12.1886 62.377 11.3062 62.377 10.3334C62.377 9.34674 62.5854 8.46424 63.0023 7.68604C63.4331 6.89384 64.0099 6.2685 64.7326 5.8099C65.4691 5.3374 66.2891 5.10115 67.1924 5.10115C67.9567 5.10115 68.6307 5.26791 69.2149 5.60144C69.8119 5.92108 70.2849 6.36578 70.6319 6.93554C70.9789 7.50534 71.1529 8.15154 71.1529 8.87424V11.7509C71.1529 12.4735 70.9789 13.1197 70.6319 13.6895C70.2979 14.2593 69.8329 14.711 69.2349 15.0445C68.6377 15.3641 67.9567 15.524 67.1924 15.524ZM67.5676 13.356C68.1374 13.356 68.6307 13.2309 69.0479 12.9808C69.4789 12.7167 69.8119 12.3554 70.0479 11.8968C70.2849 11.4382 70.4029 10.9101 70.4029 10.3125C70.4029 9.71504 70.2849 9.18694 70.0479 8.72834C69.8119 8.26964 69.4789 7.91534 69.0479 7.66514C68.6307 7.40114 68.1443 7.26914 67.5884 7.26914C67.0187 7.26914 66.5184 7.40114 66.0875 7.66514C65.6706 7.91534 65.3371 8.26964 65.087 8.72834C64.8507 9.18694 64.7326 9.71504 64.7326 10.3125C64.7326 10.9101 64.8507 11.4382 65.087 11.8968C65.3371 12.3554 65.6706 12.7167 66.0875 12.9808C66.5184 13.2309 67.0117 13.356 67.5676 13.356ZM72.5499 15.3155H70.2569V12.6264L70.6529 10.1875L70.2569 7.76944V0.306641H72.5499V15.3155Z" fill="#2E81FF"/>
<path d="M79.2652 19.6936C78.2092 19.6936 77.2842 19.499 76.4922 19.1099C75.7002 18.7347 75.0612 18.1996 74.5742 17.5048L76.0752 16.0039C76.4782 16.5042 76.9372 16.8794 77.4512 17.1296C77.9652 17.3797 78.5842 17.5048 79.3062 17.5048C80.2102 17.5048 80.9252 17.2685 81.4542 16.796C81.9822 16.3374 82.2462 15.7051 82.2462 14.8991V12.4393L82.6422 10.2296L82.2462 7.99915V5.31001H84.5392V14.8991C84.5392 15.858 84.3162 16.6918 83.8722 17.4006C83.4272 18.1232 82.8092 18.686 82.0162 19.0891C81.2242 19.4921 80.3072 19.6936 79.2652 19.6936ZM79.1612 15.1075C78.2712 15.1075 77.4652 14.8921 76.7422 14.4613C76.0342 14.0166 75.4712 13.4121 75.0542 12.6477C74.6512 11.8834 74.4492 11.0287 74.4492 10.0837C74.4492 9.13865 74.6512 8.29095 75.0542 7.54055C75.4712 6.79005 76.0342 6.19943 76.7422 5.76862C77.4652 5.32391 78.2712 5.10156 79.1612 5.10156C79.9532 5.10156 80.6482 5.26137 81.2452 5.58101C81.8432 5.90064 82.3082 6.34535 82.6422 6.91515C82.9752 7.47105 83.1422 8.12415 83.1422 8.87465V11.3345C83.1422 12.071 82.9682 12.7242 82.6212 13.294C82.2872 13.8637 81.8222 14.3085 81.2242 14.6281C80.6272 14.9477 79.9392 15.1075 79.1612 15.1075ZM79.6192 12.9396C80.1752 12.9396 80.6612 12.8215 81.0782 12.5852C81.4952 12.349 81.8152 12.0224 82.0372 11.6055C82.2732 11.1747 82.3922 10.6744 82.3922 10.1046C82.3922 9.53475 82.2732 9.04135 82.0372 8.62445C81.8152 8.19365 81.4952 7.86015 81.0782 7.62385C80.6612 7.38765 80.1752 7.26955 79.6192 7.26955C79.0632 7.26955 78.5702 7.38765 78.1392 7.62385C77.7222 7.86015 77.3962 8.19365 77.1592 8.62445C76.9232 9.04135 76.8052 9.53475 76.8052 10.1046C76.8052 10.6605 76.9232 11.1538 77.1592 11.5846C77.3962 12.0154 77.7222 12.349 78.1392 12.5852C78.5702 12.8215 79.0632 12.9396 79.6192 12.9396Z" fill="#2E81FF"/>
<path d="M91.7345 15.5245C90.7335 15.5245 89.8305 15.3021 89.0245 14.8574C88.2315 14.3988 87.5995 13.7734 87.1275 12.9813C86.6685 12.1891 86.4395 11.2997 86.4395 10.313C86.4395 9.32625 86.6685 8.44385 87.1275 7.66555C87.5855 6.87345 88.2045 6.24807 88.9825 5.78946C89.7745 5.33086 90.6505 5.10156 91.6085 5.10156C92.5405 5.10156 93.3605 5.31696 94.0685 5.74777C94.7915 6.17858 95.3545 6.76925 95.7575 7.51965C96.1745 8.27015 96.3825 9.12475 96.3825 10.0837C96.3825 10.2505 96.3685 10.4242 96.3405 10.6049C96.3275 10.7716 96.2995 10.9592 96.2575 11.1677H88.0445V9.29155H95.0695L94.2145 10.042C94.1865 9.43055 94.0685 8.91635 93.8605 8.49945C93.6515 8.08245 93.3535 7.76285 92.9635 7.54055C92.5885 7.31815 92.1235 7.20695 91.5675 7.20695C90.9835 7.20695 90.4765 7.33205 90.0455 7.58215C89.6145 7.83235 89.2815 8.18675 89.0445 8.64535C88.8085 9.09005 88.6905 9.62505 88.6905 10.2505C88.6905 10.8759 88.8155 11.4248 89.0655 11.8973C89.3155 12.3698 89.6705 12.7381 90.1285 13.0021C90.5875 13.2523 91.1155 13.3773 91.7135 13.3773C92.2275 13.3773 92.6995 13.287 93.1305 13.1064C93.5755 12.9257 93.9505 12.6616 94.2565 12.3142L95.7155 13.7943C95.2295 14.364 94.6385 14.7949 93.9435 15.0867C93.2485 15.3785 92.5125 15.5245 91.7345 15.5245Z" fill="#2E81FF"/>
</svg>
