<svg width="24" height="25" viewBox="0 0 24 25" fill="none" xmlns="http://www.w3.org/2000/svg">
<rect y="0.121094" width="24" height="24" rx="8" fill="#EEEEEE"/>
<path d="M7.9987 12.7874H11.332H12.6654H15.9987C16.1876 12.7874 16.3459 12.7235 16.4737 12.5958C16.6015 12.468 16.6654 12.3097 16.6654 12.1208C16.6654 11.9319 16.6015 11.7735 16.4737 11.6458C16.3459 11.518 16.1876 11.4541 15.9987 11.4541H12.6654H11.332H7.9987C7.80981 11.4541 7.65148 11.518 7.5237 11.6458C7.39592 11.7735 7.33203 11.9319 7.33203 12.1208C7.33203 12.3097 7.39592 12.468 7.5237 12.5958C7.65148 12.7235 7.80981 12.7874 7.9987 12.7874Z" fill="#888888"/>
</svg>
