<svg width="20" height="21" viewBox="0 0 20 21" fill="none" xmlns="http://www.w3.org/2000/svg">
<mask id="mask0_472_11830" style="mask-type:alpha" maskUnits="userSpaceOnUse" x="0" y="0" width="20" height="21">
<rect y="0.121094" width="20" height="20" fill="#D9D9D9"/>
</mask>
<g mask="url(#mask0_472_11830)">
<path d="M9.9987 9.94792C9.08203 9.94792 8.29731 9.62153 7.64453 8.96875C6.99175 8.31597 6.66536 7.53125 6.66536 6.61458C6.66536 5.69792 6.99175 4.91319 7.64453 4.26042C8.29731 3.60764 9.08203 3.28125 9.9987 3.28125C10.9154 3.28125 11.7001 3.60764 12.3529 4.26042C13.0056 4.91319 13.332 5.69792 13.332 6.61458C13.332 7.53125 13.0056 8.31597 12.3529 8.96875C11.7001 9.62153 10.9154 9.94792 9.9987 9.94792ZM3.33203 14.9479V14.2812C3.33203 13.809 3.45356 13.375 3.69661 12.9792C3.93967 12.5833 4.26259 12.2812 4.66536 12.0729C5.52648 11.6424 6.40148 11.3194 7.29036 11.1042C8.17925 10.8889 9.08203 10.7812 9.9987 10.7812C10.9154 10.7812 11.8181 10.8889 12.707 11.1042C13.5959 11.3194 14.4709 11.6424 15.332 12.0729C15.7348 12.2812 16.0577 12.5833 16.3008 12.9792C16.5438 13.375 16.6654 13.809 16.6654 14.2812V14.9479C16.6654 15.4062 16.5022 15.7986 16.1758 16.125C15.8494 16.4514 15.457 16.6146 14.9987 16.6146H4.9987C4.54036 16.6146 4.148 16.4514 3.82161 16.125C3.49523 15.7986 3.33203 15.4062 3.33203 14.9479Z" fill="#888888"/>
</g>
</svg>
