<svg width="24" height="25" viewBox="0 0 24 25" fill="none" xmlns="http://www.w3.org/2000/svg">
<rect y="0.121094" width="24" height="24" rx="8" fill="#EEEEEE"/>
<path d="M11.332 12.7874H7.9987C7.80981 12.7874 7.65148 12.7235 7.5237 12.5958C7.39592 12.468 7.33203 12.3097 7.33203 12.1208C7.33203 11.9319 7.39592 11.7735 7.5237 11.6458C7.65148 11.518 7.80981 11.4541 7.9987 11.4541H11.332V8.12077C11.332 7.93188 11.3959 7.77355 11.5237 7.64577C11.6515 7.51799 11.8098 7.4541 11.9987 7.4541C12.1876 7.4541 12.3459 7.51799 12.4737 7.64577C12.6015 7.77355 12.6654 7.93188 12.6654 8.12077V11.4541H15.9987C16.1876 11.4541 16.3459 11.518 16.4737 11.6458C16.6015 11.7735 16.6654 11.9319 16.6654 12.1208C16.6654 12.3097 16.6015 12.468 16.4737 12.5958C16.3459 12.7235 16.1876 12.7874 15.9987 12.7874H12.6654V16.1208C12.6654 16.3097 12.6015 16.468 12.4737 16.5958C12.3459 16.7235 12.1876 16.7874 11.9987 16.7874C11.8098 16.7874 11.6515 16.7235 11.5237 16.5958C11.3959 16.468 11.332 16.3097 11.332 16.1208V12.7874Z" fill="#1C1B1F"/>
</svg>
