<svg width="20" height="20" viewBox="0 0 20 20" fill="none" xmlns="http://www.w3.org/2000/svg">
<g clip-path="url(#clip0_25_91653)">
<mask id="mask0_25_91653" style="mask-type:alpha" maskUnits="userSpaceOnUse" x="0" y="0" width="20" height="20">
<rect width="20" height="20" transform="matrix(-1 0 0 1 20 0)" fill="#D9D9D9"/>
</mask>
<g mask="url(#mask0_25_91653)">
<path d="M9.9987 18.3337C11.1515 18.3337 12.2348 18.1149 13.2487 17.6774C14.2626 17.2399 15.1445 16.6462 15.8945 15.8962C16.6445 15.1462 17.2383 14.2642 17.6758 13.2503C18.1133 12.2364 18.332 11.1531 18.332 10.0003C18.332 8.84755 18.1133 7.76421 17.6758 6.75033C17.2383 5.73644 16.6445 4.85449 15.8945 4.10449C15.1445 3.35449 14.2626 2.76074 13.2487 2.32324C12.2348 1.88574 11.1515 1.66699 9.9987 1.66699C8.84592 1.66699 7.76259 1.88574 6.7487 2.32324C5.73481 2.76074 4.85286 3.35449 4.10286 4.10449C3.35286 4.85449 2.75911 5.73644 2.32161 6.75033C1.88411 7.76421 1.66536 8.84755 1.66536 10.0003C1.66536 11.1531 1.88411 12.2364 2.32161 13.2503C2.75911 14.2642 3.35286 15.1462 4.10286 15.8962C4.85286 16.6462 5.73481 17.2399 6.7487 17.6774C7.76259 18.1149 8.84592 18.3337 9.9987 18.3337ZM9.9987 16.667C8.13759 16.667 6.5612 16.0212 5.26953 14.7295C3.97786 13.4378 3.33203 11.8614 3.33203 10.0003C3.33203 8.13921 3.97786 6.56283 5.26953 5.27116C6.5612 3.97949 8.13759 3.33366 9.9987 3.33366C11.8598 3.33366 13.4362 3.97949 14.7279 5.27116C16.0195 6.56283 16.6654 8.13921 16.6654 10.0003C16.6654 11.8614 16.0195 13.4378 14.7279 14.7295C13.4362 16.0212 11.8598 16.667 9.9987 16.667Z" fill="black" fill-opacity="0.5"/>
</g>
</g>
<defs>
<clipPath id="clip0_25_91653">
<rect width="20" height="20" fill="white" transform="matrix(-1 0 0 1 20 0)"/>
</clipPath>
</defs>
</svg>
