<svg width="14" height="14" viewBox="0 0 14 14" fill="none" xmlns="http://www.w3.org/2000/svg">
<path d="M8.547 7.00285L4.85441 10.6204C4.72882 10.7435 4.66811 10.887 4.6723 11.0511C4.67648 11.2152 4.74137 11.3587 4.86697 11.4818C4.99257 11.6048 5.1391 11.6663 5.30657 11.6663C5.47403 11.6663 5.62056 11.6048 5.74616 11.4818L9.61458 7.70422C9.71506 7.60578 9.79042 7.49504 9.84066 7.37199C9.8909 7.24895 9.91602 7.1259 9.91602 7.00285C9.91602 6.8798 9.8909 6.75676 9.84066 6.63371C9.79042 6.51066 9.71506 6.39992 9.61458 6.30148L5.74616 2.51162C5.62056 2.38858 5.47194 2.3291 5.30029 2.33321C5.12864 2.33731 4.98001 2.40088 4.85441 2.52393C4.72882 2.64698 4.66602 2.79053 4.66602 2.9546C4.66602 3.11866 4.72882 3.26221 4.85441 3.38526L8.547 7.00285Z" fill="black"/>
</svg>
