<svg width="21" height="20" viewBox="0 0 21 20" fill="none" xmlns="http://www.w3.org/2000/svg">
<mask id="mask0_472_11586" style="mask-type:alpha" maskUnits="userSpaceOnUse" x="0" y="0" width="21" height="20">
<rect x="0.201172" width="20" height="20" fill="#D9D9D9"/>
</mask>
<g mask="url(#mask0_472_11586)">
<path d="M8.39128 13.4993C6.87739 13.4993 5.59614 12.975 4.54753 11.9264C3.49891 10.8778 2.97461 9.59657 2.97461 8.08268C2.97461 6.56879 3.49891 5.28754 4.54753 4.23893C5.59614 3.19032 6.87739 2.66602 8.39128 2.66602C9.90516 2.66602 11.1864 3.19032 12.235 4.23893C13.2836 5.28754 13.8079 6.56879 13.8079 8.08268C13.8079 8.69379 13.7107 9.27018 13.5163 9.81185C13.3218 10.3535 13.0579 10.8327 12.7246 11.2493L17.3913 15.916C17.5441 16.0688 17.6204 16.2632 17.6204 16.4993C17.6204 16.7355 17.5441 16.9299 17.3913 17.0827C17.2385 17.2355 17.0441 17.3118 16.8079 17.3118C16.5718 17.3118 16.3774 17.2355 16.2246 17.0827L11.5579 12.416C11.1413 12.7493 10.6621 13.0132 10.1204 13.2077C9.57878 13.4021 9.00239 13.4993 8.39128 13.4993ZM8.39128 11.8327C9.43294 11.8327 10.3184 11.4681 11.0475 10.7389C11.7767 10.0098 12.1413 9.12435 12.1413 8.08268C12.1413 7.04102 11.7767 6.1556 11.0475 5.42643C10.3184 4.69727 9.43294 4.33268 8.39128 4.33268C7.34961 4.33268 6.46419 4.69727 5.73503 5.42643C5.00586 6.1556 4.64128 7.04102 4.64128 8.08268C4.64128 9.12435 5.00586 10.0098 5.73503 10.7389C6.46419 11.4681 7.34961 11.8327 8.39128 11.8327Z" fill="#888888"/>
</g>
</svg>
