<svg width="20" height="21" viewBox="0 0 20 21" fill="none" xmlns="http://www.w3.org/2000/svg">
<mask id="mask0_694_2482" style="mask-type:alpha" maskUnits="userSpaceOnUse" x="0" y="0" width="20" height="21">
<rect y="0.904297" width="20" height="19.1129" fill="#D9D9D9"/>
</mask>
<g mask="url(#mask0_694_2482)">
<path d="M9.22175 16.1459L9.21356 16.1381L9.20503 16.1306L7.76795 14.8767C6.30668 13.5988 4.98897 12.3328 3.81411 11.0787C2.70052 9.89005 2.16797 8.61137 2.16797 7.22965C2.16797 6.1138 2.55301 5.204 3.32591 4.46537C4.10015 3.72548 5.06332 3.34961 6.2513 3.34961C6.91751 3.34961 7.54081 3.48424 8.12663 3.75225C8.71845 4.023 9.21664 4.39004 9.62695 4.85345L10.0013 5.27623L10.3756 4.85345C10.786 4.39004 11.2842 4.023 11.876 3.75225C12.4618 3.48424 13.0851 3.34961 13.7513 3.34961C14.9393 3.34961 15.9025 3.72548 16.6767 4.46537C17.4496 5.204 17.8346 6.1138 17.8346 7.22965C17.8346 8.61248 17.3046 9.89521 16.197 11.0907C15.031 12.3492 13.7048 13.6169 12.2173 14.8936L12.2173 14.8936L12.2145 14.896L10.7978 16.1304L10.7892 16.138L10.7809 16.1459C10.682 16.2403 10.5696 16.3079 10.4386 16.351C10.2831 16.4023 10.138 16.4255 10.0013 16.4255C9.86461 16.4255 9.71949 16.4023 9.56404 16.351C9.43304 16.3079 9.32057 16.2403 9.22175 16.1459Z" fill="#E0E0E0" stroke="#F5F5F5"/>
</g>
</svg>
