<svg width="24" height="25" viewBox="0 0 24 25" fill="none" xmlns="http://www.w3.org/2000/svg">
<path d="M5.64453 14.8086C5.09453 14.8086 4.6237 14.6128 4.23203 14.2211C3.84036 13.8294 3.64453 13.3586 3.64453 12.8086C3.64453 12.2586 3.84036 11.7878 4.23203 11.3961C4.6237 11.0044 5.09453 10.8086 5.64453 10.8086C6.19453 10.8086 6.66536 11.0044 7.05703 11.3961C7.4487 11.7878 7.64453 12.2586 7.64453 12.8086C7.64453 13.3586 7.4487 13.8294 7.05703 14.2211C6.66536 14.6128 6.19453 14.8086 5.64453 14.8086ZM11.6445 14.8086C11.0945 14.8086 10.6237 14.6128 10.232 14.2211C9.84036 13.8294 9.64453 13.3586 9.64453 12.8086C9.64453 12.2586 9.84036 11.7878 10.232 11.3961C10.6237 11.0044 11.0945 10.8086 11.6445 10.8086C12.1945 10.8086 12.6654 11.0044 13.057 11.3961C13.4487 11.7878 13.6445 12.2586 13.6445 12.8086C13.6445 13.3586 13.4487 13.8294 13.057 14.2211C12.6654 14.6128 12.1945 14.8086 11.6445 14.8086ZM17.6445 14.8086C17.0945 14.8086 16.6237 14.6128 16.232 14.2211C15.8404 13.8294 15.6445 13.3586 15.6445 12.8086C15.6445 12.2586 15.8404 11.7878 16.232 11.3961C16.6237 11.0044 17.0945 10.8086 17.6445 10.8086C18.1945 10.8086 18.6654 11.0044 19.057 11.3961C19.4487 11.7878 19.6445 12.2586 19.6445 12.8086C19.6445 13.3586 19.4487 13.8294 19.057 14.2211C18.6654 14.6128 18.1945 14.8086 17.6445 14.8086Z" fill="#1C1B1F"/>
</svg>
