<svg width="18" height="19" viewBox="0 0 18 19" fill="none" xmlns="http://www.w3.org/2000/svg">
<mask id="mask0_507_4714" style="mask-type:alpha" maskUnits="userSpaceOnUse" x="0" y="0" width="18" height="19">
<rect y="0.121094" width="18" height="18" fill="#D9D9D9"/>
</mask>
<g mask="url(#mask0_507_4714)">
<path d="M9.00123 13.8277L5.88873 15.7027C5.75123 15.7902 5.60748 15.8277 5.45748 15.8152C5.30748 15.8027 5.17623 15.7527 5.06373 15.6652C4.95123 15.5777 4.86373 15.4684 4.80123 15.3371C4.73873 15.2059 4.72623 15.059 4.76373 14.8965L5.58873 11.3527L2.83248 8.97148C2.70748 8.85898 2.62936 8.73086 2.59811 8.58711C2.56686 8.44336 2.57623 8.30273 2.62623 8.16523C2.67623 8.02773 2.75123 7.91523 2.85123 7.82773C2.95123 7.74023 3.08873 7.68398 3.26373 7.65898L6.90123 7.34023L8.30748 4.00273C8.36998 3.85273 8.46686 3.74023 8.59811 3.66523C8.72936 3.59023 8.86373 3.55273 9.00123 3.55273C9.13873 3.55273 9.27311 3.59023 9.40436 3.66523C9.53561 3.74023 9.63248 3.85273 9.69498 4.00273L11.1012 7.34023L14.7387 7.65898C14.9137 7.68398 15.0512 7.74023 15.1512 7.82773C15.2512 7.91523 15.3262 8.02773 15.3762 8.16523C15.4262 8.30273 15.4356 8.44336 15.4044 8.58711C15.3731 8.73086 15.295 8.85898 15.17 8.97148L12.4137 11.3527L13.2387 14.8965C13.2762 15.059 13.2637 15.2059 13.2012 15.3371C13.1387 15.4684 13.0512 15.5777 12.9387 15.6652C12.8262 15.7527 12.695 15.8027 12.545 15.8152C12.395 15.8277 12.2512 15.7902 12.1137 15.7027L9.00123 13.8277Z" fill="#DDDDDD"/>
</g>
</svg>
