<svg width="20" height="21" viewBox="0 0 20 21" fill="none" xmlns="http://www.w3.org/2000/svg">
<g clip-path="url(#clip0_25_90307)">
<path d="M10.0052 12.3323L15.1732 7.05722C15.349 6.8778 15.554 6.79108 15.7884 6.79706C16.0228 6.80304 16.2279 6.89574 16.4036 7.07517C16.5794 7.25459 16.6673 7.46392 16.6673 7.70316C16.6673 7.94239 16.5794 8.15172 16.4036 8.33115L11.0071 13.8575C10.8665 14.001 10.7083 14.1087 10.5325 14.1804C10.3568 14.2522 10.181 14.2881 10.0052 14.2881C9.82941 14.2881 9.65362 14.2522 9.47784 14.1804C9.30206 14.1087 9.14386 14.001 9.00323 13.8575L3.58915 8.33115C3.41337 8.15172 3.32841 7.9394 3.33427 7.69419C3.34013 7.44897 3.43095 7.23665 3.60673 7.05722C3.78251 6.8778 3.98759 6.78809 4.22197 6.78809C4.45634 6.78809 4.66142 6.8778 4.8372 7.05722L10.0052 12.3323Z" fill="black"/>
</g>
<defs>
<clipPath id="clip0_25_90307">
<rect width="20" height="20" fill="white" transform="translate(0 0.121094)"/>
</clipPath>
</defs>
</svg>
